<svg xmlns="http://www.w3.org/2000/svg" version="1.1" xmlns:xlink="http://www.w3.org/1999/xlink" xmlns:svgjs="http://svgjs.dev/svgjs" width="1440" height="560" preserveAspectRatio="none" viewBox="0 0 1440 560">
    <g mask="url(&quot;#SvgjsMask1027&quot;)" fill="none">
        <rect width="1440" height="560" x="0" y="0" fill="rgba(52, 148, 248, 1)"></rect>
        <path d="M734 218L733 -42" stroke-width="6" stroke="url(&quot;#SvgjsLinearGradient1028&quot;)" stroke-linecap="round" class="Down"></path>
        <path d="M784 536L783 306" stroke-width="10" stroke="url(&quot;#SvgjsLinearGradient1028&quot;)" stroke-linecap="round" class="Down"></path>
        <path d="M360 101L359 473" stroke-width="10" stroke="url(&quot;#SvgjsLinearGradient1028&quot;)" stroke-linecap="round" class="Down"></path>
        <path d="M1366 375L1365 169" stroke-width="8" stroke="url(&quot;#SvgjsLinearGradient1028&quot;)" stroke-linecap="round" class="Down"></path>
        <path d="M1053 302L1052 642" stroke-width="8" stroke="url(&quot;#SvgjsLinearGradient1029&quot;)" stroke-linecap="round" class="Up"></path>
        <path d="M1261 519L1260 827" stroke-width="6" stroke="url(&quot;#SvgjsLinearGradient1028&quot;)" stroke-linecap="round" class="Down"></path>
        <path d="M739 80L738 421" stroke-width="6" stroke="url(&quot;#SvgjsLinearGradient1029&quot;)" stroke-linecap="round" class="Up"></path>
        <path d="M1045 521L1044 226" stroke-width="6" stroke="url(&quot;#SvgjsLinearGradient1029&quot;)" stroke-linecap="round" class="Up"></path>
        <path d="M951 73L950 299" stroke-width="8" stroke="url(&quot;#SvgjsLinearGradient1028&quot;)" stroke-linecap="round" class="Down"></path>
        <path d="M671 110L670 487" stroke-width="8" stroke="url(&quot;#SvgjsLinearGradient1029&quot;)" stroke-linecap="round" class="Up"></path>
        <path d="M747 364L746 135" stroke-width="6" stroke="url(&quot;#SvgjsLinearGradient1029&quot;)" stroke-linecap="round" class="Up"></path>
        <path d="M12 0L11 229" stroke-width="10" stroke="url(&quot;#SvgjsLinearGradient1029&quot;)" stroke-linecap="round" class="Up"></path>
        <path d="M1133 521L1132 893" stroke-width="6" stroke="url(&quot;#SvgjsLinearGradient1029&quot;)" stroke-linecap="round" class="Up"></path>
        <path d="M1034 378L1033 797" stroke-width="8" stroke="url(&quot;#SvgjsLinearGradient1029&quot;)" stroke-linecap="round" class="Up"></path>
        <path d="M1370 556L1369 367" stroke-width="8" stroke="url(&quot;#SvgjsLinearGradient1028&quot;)" stroke-linecap="round" class="Down"></path>
        <path d="M1239 139L1238 -263" stroke-width="8" stroke="url(&quot;#SvgjsLinearGradient1028&quot;)" stroke-linecap="round" class="Down"></path>
        <path d="M759 230L758 488" stroke-width="8" stroke="url(&quot;#SvgjsLinearGradient1028&quot;)" stroke-linecap="round" class="Down"></path>
        <path d="M1158 453L1157 759" stroke-width="8" stroke="url(&quot;#SvgjsLinearGradient1028&quot;)" stroke-linecap="round" class="Down"></path>
        <path d="M942 484L941 72" stroke-width="10" stroke="url(&quot;#SvgjsLinearGradient1029&quot;)" stroke-linecap="round" class="Up"></path>
        <path d="M1232 298L1231 676" stroke-width="8" stroke="url(&quot;#SvgjsLinearGradient1029&quot;)" stroke-linecap="round" class="Up"></path>
        <path d="M360 18L359 315" stroke-width="6" stroke="url(&quot;#SvgjsLinearGradient1029&quot;)" stroke-linecap="round" class="Up"></path>
        <path d="M188 288L187 -100" stroke-width="10" stroke="url(&quot;#SvgjsLinearGradient1028&quot;)" stroke-linecap="round" class="Down"></path>
        <path d="M362 47L361 285" stroke-width="10" stroke="url(&quot;#SvgjsLinearGradient1029&quot;)" stroke-linecap="round" class="Up"></path>
        <path d="M706 95L705 502" stroke-width="6" stroke="url(&quot;#SvgjsLinearGradient1028&quot;)" stroke-linecap="round" class="Down"></path>
        <path d="M1172 397L1171 682" stroke-width="10" stroke="url(&quot;#SvgjsLinearGradient1029&quot;)" stroke-linecap="round" class="Up"></path>
        <path d="M439 174L438 337" stroke-width="10" stroke="url(&quot;#SvgjsLinearGradient1029&quot;)" stroke-linecap="round" class="Up"></path>
        <path d="M751 459L750 610" stroke-width="10" stroke="url(&quot;#SvgjsLinearGradient1029&quot;)" stroke-linecap="round" class="Up"></path>
        <path d="M1277 456L1276 205" stroke-width="6" stroke="url(&quot;#SvgjsLinearGradient1028&quot;)" stroke-linecap="round" class="Down"></path>
        <path d="M1063 141L1062 -24" stroke-width="6" stroke="url(&quot;#SvgjsLinearGradient1028&quot;)" stroke-linecap="round" class="Down"></path>
        <path d="M1274 152L1273 478" stroke-width="6" stroke="url(&quot;#SvgjsLinearGradient1029&quot;)" stroke-linecap="round" class="Up"></path>
        <path d="M1273 284L1272 502" stroke-width="8" stroke="url(&quot;#SvgjsLinearGradient1028&quot;)" stroke-linecap="round" class="Down"></path>
        <path d="M1310 197L1309 477" stroke-width="6" stroke="url(&quot;#SvgjsLinearGradient1028&quot;)" stroke-linecap="round" class="Down"></path>
        <path d="M1234 316L1233 161" stroke-width="8" stroke="url(&quot;#SvgjsLinearGradient1028&quot;)" stroke-linecap="round" class="Down"></path>
        <path d="M904 165L903 -29" stroke-width="8" stroke="url(&quot;#SvgjsLinearGradient1029&quot;)" stroke-linecap="round" class="Up"></path>
        <path d="M1329 367L1328 779" stroke-width="6" stroke="url(&quot;#SvgjsLinearGradient1028&quot;)" stroke-linecap="round" class="Down"></path>
        <path d="M1227 485L1226 194" stroke-width="8" stroke="url(&quot;#SvgjsLinearGradient1028&quot;)" stroke-linecap="round" class="Down"></path>
    </g>
    <defs>
        <mask id="SvgjsMask1027">
            <rect width="1440" height="560" fill="#ffffff"></rect>
        </mask>
        <linearGradient x1="0%" y1="0%" x2="0%" y2="100%" id="SvgjsLinearGradient1028">
            <stop stop-color="rgba(131, 191, 255, 0)" offset="0"></stop>
            <stop stop-color="rgba(131, 191, 255, 1)" offset="1"></stop>
        </linearGradient>
        <linearGradient x1="0%" y1="100%" x2="0%" y2="0%" id="SvgjsLinearGradient1029">
            <stop stop-color="rgba(131, 191, 255, 0)" offset="0"></stop>
            <stop stop-color="rgba(131, 191, 255, 1)" offset="1"></stop>
        </linearGradient>
    </defs>
</svg>